<svg width="138" height="22" viewBox="0 0 138 22" fill="none" xmlns="http://www.w3.org/2000/svg">
<path d="M5.65625 17.2187C4.73958 17.2187 3.91406 17.0365 3.17969 16.6719C2.44531 16.3073 1.85677 15.8073 1.41406 15.1719C0.971354 14.5365 0.729167 13.8125 0.6875 13H2.5625C2.63542 13.724 2.96354 14.3229 3.54688 14.7969C4.13542 15.2656 4.83854 15.5 5.65625 15.5C6.3125 15.5 6.89583 15.3464 7.40625 15.0391C7.92188 14.7318 8.32552 14.3099 8.61719 13.7734C8.91406 13.2318 9.0625 12.6198 9.0625 11.9375C9.0625 11.2396 8.90885 10.6172 8.60156 10.0703C8.29948 9.51823 7.88281 9.08333 7.35156 8.76562C6.82031 8.44792 6.21354 8.28646 5.53125 8.28125C5.04167 8.27604 4.53906 8.35156 4.02344 8.50781C3.50781 8.65885 3.08333 8.85417 2.75 9.09375L0.9375 8.875L1.90625 1H10.2188V2.71875H3.53125L2.96875 7.4375H3.0625C3.39063 7.17708 3.80208 6.96094 4.29688 6.78906C4.79167 6.61719 5.30729 6.53125 5.84375 6.53125C6.82292 6.53125 7.69531 6.76562 8.46094 7.23437C9.23177 7.69792 9.83594 8.33333 10.2734 9.14062C10.7161 9.94792 10.9375 10.8698 10.9375 11.9062C10.9375 12.9271 10.7083 13.8385 10.25 14.6406C9.79687 15.4375 9.17188 16.0677 8.375 16.5312C7.57813 16.9896 6.67188 17.2187 5.65625 17.2187ZM19.2598 17.2187C18.0827 17.2187 17.0801 16.8984 16.252 16.2578C15.4238 15.612 14.791 14.6771 14.3535 13.4531C13.916 12.224 13.6973 10.7396 13.6973 9C13.6973 7.27083 13.916 5.79427 14.3535 4.57031C14.7962 3.34115 15.4316 2.40365 16.2598 1.75781C17.0931 1.10677 18.0931 0.781249 19.2598 0.781249C20.4264 0.781249 21.4238 1.10677 22.252 1.75781C23.0853 2.40365 23.7207 3.34115 24.1582 4.57031C24.6009 5.79427 24.8223 7.27083 24.8223 9C24.8223 10.7396 24.6035 12.224 24.166 13.4531C23.7285 14.6771 23.0957 15.612 22.2676 16.2578C21.4395 16.8984 20.4368 17.2187 19.2598 17.2187ZM19.2598 15.5C20.4264 15.5 21.3327 14.9375 21.9785 13.8125C22.6243 12.6875 22.9473 11.0833 22.9473 9C22.9473 7.61458 22.7988 6.4349 22.502 5.46094C22.2103 4.48698 21.7884 3.74479 21.2363 3.23437C20.6895 2.72396 20.0306 2.46875 19.2598 2.46875C18.1035 2.46875 17.1999 3.03906 16.5488 4.17969C15.8978 5.3151 15.5723 6.92187 15.5723 9C15.5723 10.3854 15.7181 11.5625 16.0098 12.5312C16.3014 13.5 16.7207 14.237 17.2676 14.7422C17.8197 15.2474 18.4837 15.5 19.2598 15.5ZM42.5098 7.6875L40.8535 8.15625C40.7493 7.88021 40.5957 7.61198 40.3926 7.35156C40.1947 7.08594 39.9238 6.86719 39.5801 6.69531C39.2363 6.52344 38.7962 6.4375 38.2598 6.4375C37.5254 6.4375 36.9134 6.60677 36.4238 6.94531C35.9395 7.27865 35.6973 7.70312 35.6973 8.21875C35.6973 8.67708 35.8639 9.03906 36.1973 9.30469C36.5306 9.57031 37.0514 9.79167 37.7598 9.96875L39.541 10.4063C40.6139 10.6667 41.4134 11.0651 41.9395 11.6016C42.4655 12.1328 42.7285 12.8177 42.7285 13.6562C42.7285 14.3437 42.5306 14.9583 42.1348 15.5C41.7441 16.0417 41.1973 16.4688 40.4941 16.7813C39.791 17.0938 38.9733 17.25 38.041 17.25C36.8171 17.25 35.804 16.9844 35.002 16.4531C34.1999 15.9219 33.6921 15.1458 33.4785 14.125L35.2285 13.6875C35.3952 14.3333 35.7103 14.8177 36.1738 15.1406C36.6426 15.4635 37.2546 15.625 38.0098 15.625C38.8691 15.625 39.5514 15.4427 40.0566 15.0781C40.5671 14.7083 40.8223 14.2656 40.8223 13.75C40.8223 13.3333 40.6764 12.9844 40.3848 12.7031C40.0931 12.4167 39.6452 12.2031 39.041 12.0625L37.041 11.5937C35.9421 11.3333 35.1348 10.9297 34.6191 10.3828C34.1087 9.83073 33.8535 9.14062 33.8535 8.3125C33.8535 7.63542 34.0436 7.03646 34.4238 6.51562C34.8092 5.99479 35.3327 5.58594 35.9941 5.28906C36.6608 4.99219 37.416 4.84375 38.2598 4.84375C39.4473 4.84375 40.3796 5.10417 41.0566 5.625C41.7389 6.14583 42.2233 6.83333 42.5098 7.6875ZM50.5352 17.25C49.3789 17.25 48.3815 16.9948 47.543 16.4844C46.7096 15.9688 46.0664 15.25 45.6133 14.3281C45.1654 13.401 44.9414 12.3229 44.9414 11.0938C44.9414 9.86458 45.1654 8.78125 45.6133 7.84375C46.0664 6.90104 46.6966 6.16667 47.5039 5.64062C48.3164 5.10937 49.2643 4.84375 50.3477 4.84375C50.9727 4.84375 51.5898 4.94792 52.1992 5.15625C52.8086 5.36458 53.3633 5.70312 53.8633 6.17188C54.3633 6.63542 54.7617 7.25 55.0586 8.01562C55.3555 8.78125 55.5039 9.72396 55.5039 10.8437V11.625H46.2539V10.0312H53.6289C53.6289 9.35417 53.4935 8.75 53.2227 8.21875C52.957 7.6875 52.5768 7.26823 52.082 6.96094C51.5924 6.65365 51.0143 6.5 50.3477 6.5C49.6133 6.5 48.9779 6.68229 48.4414 7.04687C47.9102 7.40625 47.5013 7.875 47.2148 8.45312C46.9284 9.03125 46.7852 9.65104 46.7852 10.3125V11.375C46.7852 12.2813 46.9414 13.0495 47.2539 13.6797C47.5716 14.3047 48.0117 14.7812 48.5742 15.1094C49.1367 15.4323 49.7904 15.5938 50.5352 15.5938C51.0195 15.5938 51.457 15.526 51.8477 15.3906C52.2435 15.25 52.5846 15.0417 52.8711 14.7656C53.1576 14.4844 53.3789 14.1354 53.5352 13.7187L55.3164 14.2188C55.1289 14.8229 54.8138 15.3542 54.3711 15.8125C53.9284 16.2656 53.3815 16.6198 52.7305 16.875C52.0794 17.125 51.3477 17.25 50.5352 17.25ZM61.8398 17.2813C61.0794 17.2813 60.3893 17.138 59.7695 16.8516C59.1497 16.5599 58.6576 16.1406 58.293 15.5938C57.9284 15.0417 57.7461 14.375 57.7461 13.5937C57.7461 12.9062 57.8815 12.349 58.1523 11.9219C58.4232 11.4896 58.7852 11.151 59.2383 10.9062C59.6914 10.6615 60.1914 10.4792 60.7383 10.3594C61.2904 10.2344 61.8451 10.1354 62.4023 10.0625C63.1315 9.96875 63.7227 9.89844 64.1758 9.85156C64.6341 9.79948 64.9674 9.71354 65.1758 9.59375C65.3893 9.47396 65.4961 9.26562 65.4961 8.96875V8.90625C65.4961 8.13542 65.2852 7.53646 64.8633 7.10937C64.4466 6.68229 63.8138 6.46875 62.9648 6.46875C62.0846 6.46875 61.3945 6.66146 60.8945 7.04687C60.3945 7.43229 60.043 7.84375 59.8398 8.28125L58.0898 7.65625C58.4023 6.92708 58.819 6.35937 59.3398 5.95312C59.8659 5.54167 60.4388 5.25521 61.0586 5.09375C61.6836 4.92708 62.2982 4.84375 62.9023 4.84375C63.2878 4.84375 63.7305 4.89062 64.2305 4.98437C64.7357 5.07292 65.2227 5.25781 65.6914 5.53906C66.1654 5.82031 66.5586 6.24479 66.8711 6.8125C67.1836 7.38021 67.3398 8.14062 67.3398 9.09375V17H65.4961V15.375H65.4023C65.2773 15.6354 65.069 15.9141 64.7773 16.2109C64.4857 16.5078 64.0977 16.7604 63.6133 16.9687C63.1289 17.1771 62.5378 17.2813 61.8398 17.2813ZM62.1211 15.625C62.8503 15.625 63.4648 15.4818 63.9648 15.1953C64.4701 14.9089 64.8503 14.5391 65.1055 14.0859C65.3659 13.6328 65.4961 13.1562 65.4961 12.6562V10.9687C65.418 11.0625 65.2461 11.1484 64.9805 11.2266C64.7201 11.2995 64.418 11.3646 64.0742 11.4219C63.7357 11.474 63.4049 11.5208 63.082 11.5625C62.7643 11.599 62.5065 11.6302 62.3086 11.6562C61.8294 11.7187 61.3815 11.8203 60.9648 11.9609C60.5534 12.0964 60.2201 12.3021 59.9648 12.5781C59.7148 12.849 59.5898 13.2187 59.5898 13.6875C59.5898 14.3281 59.8268 14.8125 60.3008 15.1406C60.7799 15.4635 61.3867 15.625 62.1211 15.625ZM75.9238 5V6.5625H69.7051V5H75.9238ZM71.5176 2.125H73.3613V13.5625C73.3613 14.0833 73.4368 14.474 73.5879 14.7344C73.7441 14.9896 73.9421 15.1615 74.1816 15.25C74.4264 15.3333 74.6842 15.375 74.9551 15.375C75.1582 15.375 75.3249 15.3646 75.4551 15.3437C75.5853 15.3177 75.6895 15.2969 75.7676 15.2812L76.1426 16.9375C76.0176 16.9844 75.8431 17.0313 75.6191 17.0781C75.3952 17.1302 75.1113 17.1563 74.7676 17.1563C74.2467 17.1563 73.7363 17.0443 73.2363 16.8203C72.7415 16.5964 72.3301 16.2552 72.002 15.7969C71.679 15.3385 71.5176 14.7604 71.5176 14.0625V2.125ZM86.9824 7.6875L85.3262 8.15625C85.222 7.88021 85.0684 7.61198 84.8652 7.35156C84.6673 7.08594 84.3965 6.86719 84.0527 6.69531C83.709 6.52344 83.2689 6.4375 82.7324 6.4375C81.998 6.4375 81.3861 6.60677 80.8965 6.94531C80.4121 7.27865 80.1699 7.70312 80.1699 8.21875C80.1699 8.67708 80.3366 9.03906 80.6699 9.30469C81.0033 9.57031 81.5241 9.79167 82.2324 9.96875L84.0137 10.4063C85.0866 10.6667 85.8861 11.0651 86.4121 11.6016C86.9382 12.1328 87.2012 12.8177 87.2012 13.6562C87.2012 14.3437 87.0033 14.9583 86.6074 15.5C86.2168 16.0417 85.6699 16.4688 84.9668 16.7813C84.2637 17.0938 83.446 17.25 82.5137 17.25C81.2897 17.25 80.2767 16.9844 79.4746 16.4531C78.6725 15.9219 78.1647 15.1458 77.9512 14.125L79.7012 13.6875C79.8678 14.3333 80.1829 14.8177 80.6465 15.1406C81.1152 15.4635 81.7272 15.625 82.4824 15.625C83.3418 15.625 84.0241 15.4427 84.5293 15.0781C85.0397 14.7083 85.2949 14.2656 85.2949 13.75C85.2949 13.3333 85.1491 12.9844 84.8574 12.7031C84.5658 12.4167 84.1178 12.2031 83.5137 12.0625L81.5137 11.5937C80.4147 11.3333 79.6074 10.9297 79.0918 10.3828C78.5814 9.83073 78.3262 9.14062 78.3262 8.3125C78.3262 7.63542 78.5163 7.03646 78.8965 6.51562C79.2819 5.99479 79.8053 5.58594 80.4668 5.28906C81.1335 4.99219 81.8887 4.84375 82.7324 4.84375C83.9199 4.84375 84.8522 5.10417 85.5293 5.625C86.2116 6.14583 86.696 6.83333 86.9824 7.6875ZM101.039 17.25C99.9557 17.25 99.0052 16.9922 98.1875 16.4766C97.375 15.9609 96.7396 15.2396 96.2812 14.3125C95.8281 13.3854 95.6016 12.3021 95.6016 11.0625C95.6016 9.8125 95.8281 8.72135 96.2812 7.78906C96.7396 6.85677 97.375 6.13281 98.1875 5.61719C99.0052 5.10156 99.9557 4.84375 101.039 4.84375C102.122 4.84375 103.07 5.10156 103.883 5.61719C104.701 6.13281 105.336 6.85677 105.789 7.78906C106.247 8.72135 106.477 9.8125 106.477 11.0625C106.477 12.3021 106.247 13.3854 105.789 14.3125C105.336 15.2396 104.701 15.9609 103.883 16.4766C103.07 16.9922 102.122 17.25 101.039 17.25ZM101.039 15.5938C101.862 15.5938 102.539 15.3828 103.07 14.9609C103.602 14.5391 103.995 13.9844 104.25 13.2969C104.505 12.6094 104.633 11.8646 104.633 11.0625C104.633 10.2604 104.505 9.51302 104.25 8.82031C103.995 8.1276 103.602 7.56771 103.07 7.14062C102.539 6.71354 101.862 6.5 101.039 6.5C100.216 6.5 99.5391 6.71354 99.0078 7.14062C98.4766 7.56771 98.0833 8.1276 97.8281 8.82031C97.5729 9.51302 97.4453 10.2604 97.4453 11.0625C97.4453 11.8646 97.5729 12.6094 97.8281 13.2969C98.0833 13.9844 98.4766 14.5391 99.0078 14.9609C99.5391 15.3828 100.216 15.5938 101.039 15.5938ZM111.135 9.78125V17H109.291V5H111.072V6.875H111.229C111.51 6.26563 111.937 5.77604 112.51 5.40625C113.083 5.03125 113.822 4.84375 114.729 4.84375C115.541 4.84375 116.252 5.01042 116.861 5.34375C117.471 5.67188 117.945 6.17188 118.283 6.84375C118.622 7.51042 118.791 8.35417 118.791 9.375V17H116.947V9.5C116.947 8.55729 116.702 7.82292 116.213 7.29687C115.723 6.76562 115.051 6.5 114.197 6.5C113.609 6.5 113.083 6.6276 112.619 6.88281C112.161 7.13802 111.799 7.51042 111.533 8C111.268 8.48958 111.135 9.08333 111.135 9.78125ZM124.004 1V17H122.16V1H124.004ZM128.568 21.5C128.256 21.5 127.977 21.474 127.732 21.4219C127.488 21.375 127.318 21.3281 127.225 21.2813L127.693 19.6563C128.141 19.7708 128.537 19.8125 128.881 19.7812C129.225 19.75 129.529 19.5964 129.795 19.3203C130.066 19.0495 130.313 18.6094 130.537 18L130.881 17.0625L126.443 5H128.443L131.756 14.5625H131.881L135.193 5H137.193L132.1 18.75C131.87 19.3698 131.587 19.8828 131.248 20.2891C130.91 20.7005 130.516 21.0052 130.068 21.2031C129.626 21.401 129.126 21.5 128.568 21.5Z" fill="#0A2134"/>
</svg>
