<svg width="192" height="21" viewBox="0 0 192 21" fill="none" xmlns="http://www.w3.org/2000/svg">
<path d="M1.036 6.952C0.905333 6.74667 0.784 6.46667 0.672 6.112C0.56 5.75733 0.504 5.384 0.504 4.992C0.504 4.264 0.662667 3.74133 0.98 3.424C1.316 3.10667 1.74533 2.948 2.268 2.948H14.476C14.6067 3.15333 14.728 3.43333 14.84 3.788C14.952 4.14267 15.008 4.516 15.008 4.908C15.008 5.636 14.84 6.15867 14.504 6.476C14.1867 6.79333 13.7667 6.952 13.244 6.952H10.136V19.888C9.93067 19.944 9.604 20 9.156 20.056C8.72667 20.112 8.29733 20.14 7.868 20.14C7.43867 20.14 7.056 20.1027 6.72 20.028C6.40267 19.972 6.132 19.86 5.908 19.692C5.684 19.524 5.516 19.2907 5.404 18.992C5.292 18.6933 5.236 18.3013 5.236 17.816V6.952H1.036ZM16.3037 6.588C16.4903 6.532 16.7797 6.476 17.1717 6.42C17.5823 6.364 18.0023 6.336 18.4317 6.336C18.8423 6.336 19.2063 6.364 19.5237 6.42C19.8597 6.476 20.1397 6.588 20.3637 6.756C20.5877 6.924 20.7557 7.15733 20.8677 7.456C20.9983 7.736 21.0637 8.10933 21.0637 8.576V14.596C21.0637 15.3613 21.2503 15.912 21.6237 16.248C21.997 16.5653 22.5383 16.724 23.2477 16.724C23.677 16.724 24.0223 16.6867 24.2837 16.612C24.5637 16.5373 24.7783 16.4627 24.9277 16.388V6.588C25.1143 6.532 25.4037 6.476 25.7957 6.42C26.2063 6.364 26.6263 6.336 27.0557 6.336C27.4663 6.336 27.8303 6.364 28.1477 6.42C28.4837 6.476 28.7637 6.588 28.9877 6.756C29.2117 6.924 29.3797 7.15733 29.4917 7.456C29.6223 7.736 29.6877 8.10933 29.6877 8.576V17.088C29.6877 18.0213 29.2957 18.7213 28.5117 19.188C27.8583 19.5987 27.0743 19.9067 26.1597 20.112C25.2637 20.336 24.2837 20.448 23.2197 20.448C22.2117 20.448 21.2783 20.336 20.4197 20.112C19.5797 19.888 18.8517 19.5427 18.2357 19.076C17.6197 18.6093 17.1437 18.012 16.8077 17.284C16.4717 16.5373 16.3037 15.6413 16.3037 14.596V6.588ZM37.3605 15.324C37.3605 15.8093 37.5099 16.1547 37.8085 16.36C38.1259 16.5653 38.5645 16.668 39.1245 16.668C39.4045 16.668 39.6939 16.6493 39.9925 16.612C40.2912 16.556 40.5525 16.4907 40.7765 16.416C40.9445 16.6213 41.0845 16.8547 41.1965 17.116C41.3272 17.3587 41.3925 17.6573 41.3925 18.012C41.3925 18.7213 41.1219 19.3 40.5805 19.748C40.0579 20.196 39.1245 20.42 37.7805 20.42C36.1379 20.42 34.8685 20.0467 33.9725 19.3C33.0952 18.5533 32.6565 17.34 32.6565 15.66V3.676C32.8619 3.62 33.1512 3.564 33.5245 3.508C33.9165 3.43333 34.3272 3.396 34.7565 3.396C35.5779 3.396 36.2125 3.54533 36.6605 3.844C37.1272 4.124 37.3605 4.73067 37.3605 5.664V7.456H41.0285C41.1405 7.66133 41.2432 7.92267 41.3365 8.24C41.4485 8.53867 41.5045 8.87467 41.5045 9.248C41.5045 9.90133 41.3552 10.3773 41.0565 10.676C40.7765 10.956 40.3939 11.096 39.9085 11.096H37.3605V15.324ZM57.7314 13.196C57.7314 14.3533 57.5541 15.3893 57.1994 16.304C56.8447 17.2 56.3407 17.956 55.6874 18.572C55.0527 19.188 54.2874 19.6547 53.3914 19.972C52.4954 20.2893 51.4967 20.448 50.3954 20.448C49.2941 20.448 48.2954 20.28 47.3994 19.944C46.5034 19.608 45.7287 19.132 45.0754 18.516C44.4407 17.8813 43.9461 17.116 43.5914 16.22C43.2367 15.324 43.0594 14.316 43.0594 13.196C43.0594 12.0947 43.2367 11.096 43.5914 10.2C43.9461 9.304 44.4407 8.548 45.0754 7.932C45.7287 7.29733 46.5034 6.812 47.3994 6.476C48.2954 6.14 49.2941 5.972 50.3954 5.972C51.4967 5.972 52.4954 6.14933 53.3914 6.504C54.2874 6.84 55.0527 7.32533 55.6874 7.96C56.3407 8.576 56.8447 9.332 57.1994 10.228C57.5541 11.124 57.7314 12.1133 57.7314 13.196ZM47.9314 13.196C47.9314 14.3347 48.1461 15.212 48.5754 15.828C49.0234 16.4253 49.6394 16.724 50.4234 16.724C51.2074 16.724 51.8047 16.416 52.2154 15.8C52.6447 15.184 52.8594 14.316 52.8594 13.196C52.8594 12.076 52.6447 11.2173 52.2154 10.62C51.7861 10.004 51.1794 9.696 50.3954 9.696C49.6114 9.696 49.0047 10.004 48.5754 10.62C48.1461 11.2173 47.9314 12.076 47.9314 13.196ZM64.8137 19.972C64.627 20.028 64.3283 20.084 63.9177 20.14C63.5257 20.196 63.115 20.224 62.6857 20.224C62.275 20.224 61.9017 20.196 61.5657 20.14C61.2483 20.084 60.9777 19.972 60.7537 19.804C60.5297 19.636 60.3523 19.412 60.2217 19.132C60.1097 18.8333 60.0537 18.4507 60.0537 17.984V9.584C60.0537 9.15467 60.1283 8.79067 60.2777 8.492C60.4457 8.17467 60.679 7.89467 60.9777 7.652C61.2763 7.40933 61.6403 7.19467 62.0697 7.008C62.5177 6.80267 62.9937 6.62533 63.4977 6.476C64.0017 6.32667 64.5243 6.21467 65.0657 6.14C65.607 6.04667 66.1483 6 66.6897 6C67.5857 6 68.295 6.17733 68.8177 6.532C69.3403 6.868 69.6017 7.428 69.6017 8.212C69.6017 8.47333 69.5643 8.73467 69.4897 8.996C69.415 9.23867 69.3217 9.46267 69.2097 9.668C68.8177 9.668 68.4163 9.68667 68.0057 9.724C67.595 9.76133 67.1937 9.81733 66.8017 9.892C66.4097 9.96667 66.0363 10.0507 65.6817 10.144C65.3457 10.2187 65.0563 10.312 64.8137 10.424V19.972ZM71.4534 2.612C71.4534 1.90267 71.6867 1.30533 72.1534 0.819998C72.6387 0.334666 73.2734 0.0919993 74.0574 0.0919993C74.8414 0.0919993 75.4667 0.334666 75.9334 0.819998C76.4187 1.30533 76.6614 1.90267 76.6614 2.612C76.6614 3.32133 76.4187 3.91867 75.9334 4.404C75.4667 4.88933 74.8414 5.132 74.0574 5.132C73.2734 5.132 72.6387 4.88933 72.1534 4.404C71.6867 3.91867 71.4534 3.32133 71.4534 2.612ZM76.4374 19.972C76.232 20.0093 75.924 20.056 75.5134 20.112C75.1214 20.1867 74.72 20.224 74.3094 20.224C73.8987 20.224 73.5254 20.196 73.1894 20.14C72.872 20.084 72.6014 19.972 72.3774 19.804C72.1534 19.636 71.976 19.412 71.8454 19.132C71.7334 18.8333 71.6774 18.4507 71.6774 17.984V6.588C71.8827 6.55067 72.1814 6.504 72.5734 6.448C72.984 6.37333 73.3947 6.336 73.8054 6.336C74.216 6.336 74.58 6.364 74.8974 6.42C75.2334 6.476 75.5134 6.588 75.7374 6.756C75.9614 6.924 76.1294 7.15733 76.2414 7.456C76.372 7.736 76.4374 8.10933 76.4374 8.576V19.972ZM85.2917 16.976C85.6091 16.976 85.9544 16.948 86.3277 16.892C86.7197 16.8173 87.0091 16.724 87.1957 16.612V14.372L85.1797 14.54C84.6571 14.5773 84.2277 14.6893 83.8917 14.876C83.5557 15.0627 83.3877 15.3427 83.3877 15.716C83.3877 16.0893 83.5277 16.3973 83.8077 16.64C84.1064 16.864 84.6011 16.976 85.2917 16.976ZM85.0677 5.972C86.0757 5.972 86.9904 6.07467 87.8117 6.28C88.6517 6.48533 89.3611 6.80267 89.9397 7.232C90.5371 7.64267 90.9944 8.17467 91.3117 8.828C91.6291 9.46267 91.7877 10.2187 91.7877 11.096V17.368C91.7877 17.8533 91.6477 18.2547 91.3677 18.572C91.1064 18.8707 90.7891 19.132 90.4157 19.356C89.2024 20.084 87.4944 20.448 85.2917 20.448C84.3024 20.448 83.4064 20.3547 82.6037 20.168C81.8197 19.9813 81.1384 19.7013 80.5597 19.328C79.9997 18.9547 79.5611 18.4787 79.2437 17.9C78.9451 17.3213 78.7957 16.6493 78.7957 15.884C78.7957 14.596 79.1784 13.6067 79.9437 12.916C80.7091 12.2253 81.8944 11.796 83.4997 11.628L87.1677 11.236V11.04C87.1677 10.4987 86.9251 10.116 86.4397 9.892C85.9731 9.64933 85.2917 9.528 84.3957 9.528C83.6864 9.528 82.9957 9.60267 82.3237 9.752C81.6517 9.90133 81.0451 10.088 80.5037 10.312C80.2611 10.144 80.0557 9.892 79.8877 9.556C79.7197 9.20133 79.6357 8.83733 79.6357 8.464C79.6357 7.97867 79.7477 7.596 79.9717 7.316C80.2144 7.01733 80.5784 6.76533 81.0637 6.56C81.6051 6.35467 82.2397 6.20533 82.9677 6.112C83.7144 6.01867 84.4144 5.972 85.0677 5.972ZM99.5422 19.972C99.3369 20.0093 99.0289 20.056 98.6182 20.112C98.2262 20.1867 97.8249 20.224 97.4142 20.224C97.0035 20.224 96.6302 20.196 96.2942 20.14C95.9769 20.084 95.7062 19.972 95.4822 19.804C95.2582 19.636 95.0809 19.412 94.9502 19.132C94.8382 18.8333 94.7822 18.4507 94.7822 17.984V1.744C94.9875 1.70667 95.2862 1.66 95.6782 1.604C96.0889 1.52933 96.4995 1.492 96.9102 1.492C97.3209 1.492 97.6849 1.52 98.0022 1.576C98.3382 1.632 98.6182 1.744 98.8422 1.912C99.0662 2.08 99.2342 2.31333 99.3462 2.612C99.4769 2.892 99.5422 3.26533 99.5422 3.732V19.972ZM114.026 15.94C114.026 17.3587 113.494 18.4693 112.43 19.272C111.366 20.0747 109.798 20.476 107.726 20.476C106.942 20.476 106.214 20.42 105.542 20.308C104.87 20.196 104.291 20.028 103.806 19.804C103.339 19.5613 102.966 19.2627 102.686 18.908C102.425 18.5533 102.294 18.1333 102.294 17.648C102.294 17.2 102.387 16.8267 102.574 16.528C102.761 16.2107 102.985 15.9493 103.246 15.744C103.787 16.0427 104.403 16.3133 105.094 16.556C105.803 16.78 106.615 16.892 107.53 16.892C108.109 16.892 108.547 16.808 108.846 16.64C109.163 16.472 109.322 16.248 109.322 15.968C109.322 15.7067 109.21 15.5013 108.986 15.352C108.762 15.2027 108.389 15.0813 107.866 14.988L107.026 14.82C105.402 14.5027 104.189 14.008 103.386 13.336C102.602 12.6453 102.21 11.6653 102.21 10.396C102.21 9.70533 102.359 9.08 102.658 8.52C102.957 7.96 103.377 7.49333 103.918 7.12C104.459 6.74667 105.103 6.45733 105.85 6.252C106.615 6.04667 107.455 5.944 108.37 5.944C109.061 5.944 109.705 6 110.302 6.112C110.918 6.20533 111.45 6.35467 111.898 6.56C112.346 6.76533 112.701 7.036 112.962 7.372C113.223 7.68933 113.354 8.072 113.354 8.52C113.354 8.94933 113.27 9.32267 113.102 9.64C112.953 9.93867 112.757 10.1907 112.514 10.396C112.365 10.3027 112.141 10.2093 111.842 10.116C111.543 10.004 111.217 9.91067 110.862 9.836C110.507 9.74267 110.143 9.668 109.77 9.612C109.415 9.556 109.089 9.528 108.79 9.528C108.174 9.528 107.698 9.60267 107.362 9.752C107.026 9.88267 106.858 10.0973 106.858 10.396C106.858 10.6013 106.951 10.7693 107.138 10.9C107.325 11.0307 107.679 11.152 108.202 11.264L109.07 11.46C110.862 11.8707 112.131 12.44 112.878 13.168C113.643 13.8773 114.026 14.8013 114.026 15.94ZM134.225 3.032C134.355 3.23733 134.467 3.51733 134.561 3.872C134.673 4.208 134.729 4.56267 134.729 4.936C134.729 5.664 134.57 6.18667 134.253 6.504C133.954 6.80267 133.543 6.952 133.021 6.952H127.141V10.116H133.273C133.422 10.3213 133.543 10.592 133.637 10.928C133.749 11.264 133.805 11.6187 133.805 11.992C133.805 12.7013 133.646 13.2147 133.329 13.532C133.03 13.8307 132.619 13.98 132.097 13.98H127.197V19.888C126.991 19.944 126.665 20 126.217 20.056C125.787 20.112 125.358 20.14 124.929 20.14C124.499 20.14 124.117 20.1027 123.781 20.028C123.463 19.972 123.193 19.86 122.969 19.692C122.745 19.524 122.577 19.2907 122.465 18.992C122.353 18.6933 122.297 18.3013 122.297 17.816V5.636C122.297 4.83333 122.53 4.19867 122.997 3.732C123.463 3.26533 124.098 3.032 124.901 3.032H134.225ZM141.021 19.972C140.834 20.028 140.535 20.084 140.125 20.14C139.733 20.196 139.322 20.224 138.893 20.224C138.482 20.224 138.109 20.196 137.773 20.14C137.455 20.084 137.185 19.972 136.961 19.804C136.737 19.636 136.559 19.412 136.429 19.132C136.317 18.8333 136.261 18.4507 136.261 17.984V9.584C136.261 9.15467 136.335 8.79067 136.485 8.492C136.653 8.17467 136.886 7.89467 137.185 7.652C137.483 7.40933 137.847 7.19467 138.277 7.008C138.725 6.80267 139.201 6.62533 139.705 6.476C140.209 6.32667 140.731 6.21467 141.273 6.14C141.814 6.04667 142.355 6 142.897 6C143.793 6 144.502 6.17733 145.025 6.532C145.547 6.868 145.809 7.428 145.809 8.212C145.809 8.47333 145.771 8.73467 145.697 8.996C145.622 9.23867 145.529 9.46267 145.417 9.668C145.025 9.668 144.623 9.68667 144.213 9.724C143.802 9.76133 143.401 9.81733 143.009 9.892C142.617 9.96667 142.243 10.0507 141.889 10.144C141.553 10.2187 141.263 10.312 141.021 10.424V19.972ZM154.449 20.448C153.348 20.448 152.321 20.2987 151.369 20C150.436 19.6827 149.614 19.216 148.905 18.6C148.214 17.984 147.664 17.2093 147.253 16.276C146.861 15.3427 146.665 14.2507 146.665 13C146.665 11.768 146.861 10.7133 147.253 9.836C147.664 8.94 148.196 8.212 148.849 7.652C149.502 7.07333 150.249 6.65333 151.089 6.392C151.929 6.112 152.788 5.972 153.665 5.972C154.654 5.972 155.55 6.12133 156.353 6.42C157.174 6.71867 157.874 7.12933 158.453 7.652C159.05 8.17467 159.508 8.8 159.825 9.528C160.161 10.256 160.329 11.0493 160.329 11.908C160.329 12.5427 160.152 13.028 159.797 13.364C159.442 13.7 158.948 13.9147 158.313 14.008L151.397 15.044C151.602 15.66 152.022 16.1267 152.657 16.444C153.292 16.7427 154.02 16.892 154.841 16.892C155.606 16.892 156.325 16.7987 156.997 16.612C157.688 16.4067 158.248 16.1733 158.677 15.912C158.976 16.0987 159.228 16.36 159.433 16.696C159.638 17.032 159.741 17.3867 159.741 17.76C159.741 18.6 159.349 19.2253 158.565 19.636C157.968 19.9533 157.296 20.168 156.549 20.28C155.802 20.392 155.102 20.448 154.449 20.448ZM153.665 9.444C153.217 9.444 152.825 9.51867 152.489 9.668C152.172 9.81733 151.91 10.0133 151.705 10.256C151.5 10.48 151.341 10.7413 151.229 11.04C151.136 11.32 151.08 11.6093 151.061 11.908L155.849 11.124C155.793 10.7507 155.588 10.3773 155.233 10.004C154.878 9.63067 154.356 9.444 153.665 9.444ZM168.444 16.976C168.761 16.976 169.107 16.948 169.48 16.892C169.872 16.8173 170.161 16.724 170.348 16.612V14.372L168.332 14.54C167.809 14.5773 167.38 14.6893 167.044 14.876C166.708 15.0627 166.54 15.3427 166.54 15.716C166.54 16.0893 166.68 16.3973 166.96 16.64C167.259 16.864 167.753 16.976 168.444 16.976ZM168.22 5.972C169.228 5.972 170.143 6.07467 170.964 6.28C171.804 6.48533 172.513 6.80267 173.092 7.232C173.689 7.64267 174.147 8.17467 174.464 8.828C174.781 9.46267 174.94 10.2187 174.94 11.096V17.368C174.94 17.8533 174.8 18.2547 174.52 18.572C174.259 18.8707 173.941 19.132 173.568 19.356C172.355 20.084 170.647 20.448 168.444 20.448C167.455 20.448 166.559 20.3547 165.756 20.168C164.972 19.9813 164.291 19.7013 163.712 19.328C163.152 18.9547 162.713 18.4787 162.396 17.9C162.097 17.3213 161.948 16.6493 161.948 15.884C161.948 14.596 162.331 13.6067 163.096 12.916C163.861 12.2253 165.047 11.796 166.652 11.628L170.32 11.236V11.04C170.32 10.4987 170.077 10.116 169.592 9.892C169.125 9.64933 168.444 9.528 167.548 9.528C166.839 9.528 166.148 9.60267 165.476 9.752C164.804 9.90133 164.197 10.088 163.656 10.312C163.413 10.144 163.208 9.892 163.04 9.556C162.872 9.20133 162.788 8.83733 162.788 8.464C162.788 7.97867 162.9 7.596 163.124 7.316C163.367 7.01733 163.731 6.76533 164.216 6.56C164.757 6.35467 165.392 6.20533 166.12 6.112C166.867 6.01867 167.567 5.972 168.22 5.972ZM191.151 17.536C191.057 18.4133 190.796 19.0853 190.367 19.552C189.956 20.0187 189.349 20.252 188.547 20.252C187.949 20.252 187.417 20.112 186.951 19.832C186.484 19.5333 185.98 19.0387 185.439 18.348L182.667 14.876V19.972C182.461 20.0093 182.153 20.056 181.743 20.112C181.351 20.1867 180.949 20.224 180.539 20.224C180.128 20.224 179.755 20.196 179.419 20.14C179.101 20.084 178.831 19.972 178.607 19.804C178.383 19.636 178.205 19.412 178.075 19.132C177.963 18.8333 177.907 18.4507 177.907 17.984V1.772C178.112 1.716 178.411 1.66 178.803 1.604C179.213 1.52933 179.624 1.492 180.035 1.492C180.445 1.492 180.809 1.52 181.127 1.576C181.463 1.632 181.743 1.744 181.967 1.912C182.191 2.08 182.359 2.31333 182.471 2.612C182.601 2.892 182.667 3.26533 182.667 3.732V11.124L187.483 6.196C188.453 6.196 189.228 6.41067 189.807 6.84C190.404 7.26933 190.703 7.81067 190.703 8.464C190.703 8.744 190.656 9.00533 190.563 9.248C190.469 9.472 190.32 9.70533 190.115 9.948C189.928 10.1907 189.676 10.452 189.359 10.732C189.06 10.9933 188.705 11.3013 188.295 11.656L186.671 13.056L191.151 17.536Z" fill="#363049"/>
</svg>
