<svg width="243" height="494" viewBox="0 0 243 494" fill="none" xmlns="http://www.w3.org/2000/svg">
<path d="M240.913 126.667H241.773C242.249 126.667 242.634 127.053 242.634 127.53V183.955C242.634 184.431 242.249 184.818 241.773 184.818H240.913V126.667Z" fill="#303030"/>
<path d="M1.72006 196.909L0.859653 196.909C0.384465 196.909 -0.000751819 196.522 -0.000751778 196.045L-0.000748819 162.076C-0.000748778 161.599 0.384468 161.212 0.859657 161.212L1.72007 161.212L1.72006 196.909Z" fill="#303030"/>
<path d="M1.72006 149.697L0.859653 149.697C0.384465 149.697 -0.000751819 149.31 -0.000751778 148.833L-0.000748819 114.864C-0.000748778 114.387 0.384468 114 0.859657 114L1.72007 114L1.72006 149.697Z" fill="#333333"/>
<path d="M1.72006 96.7272L0.859656 96.7272C0.384467 96.7272 -0.000749435 96.3406 -0.000749394 95.8636L-0.000747939 79.1666C-0.000747898 78.6897 0.384468 78.303 0.859657 78.303L1.72006 78.303L1.72006 96.7272Z" fill="#333333"/>
<path fill-rule="evenodd" clip-rule="evenodd" d="M3.54485 25.8595C1.72003 31.4968 1.72003 38.4625 1.72003 52.394L1.72003 441.606C1.72003 455.537 1.72003 462.503 3.54485 468.141C7.23293 479.534 16.1321 488.466 27.4828 492.168C33.099 494 40.0387 494 53.9179 494H188.715C202.594 494 209.534 494 215.15 492.168C226.501 488.466 235.4 479.534 239.088 468.141C240.913 462.503 240.913 455.537 240.913 441.606L240.913 52.3939C240.913 38.4625 240.913 31.4968 239.088 25.8595C235.4 14.4662 226.501 5.5336 215.15 1.83167C209.534 0 202.594 0 188.715 0L53.9179 0C40.0387 0 33.099 0 27.4828 1.83167C16.1321 5.5336 7.23293 14.4662 3.54485 25.8595ZM62.5225 14.1061V16.697L62.5634 16.6957L62.5223 16.9848C62.5223 23.8215 68.0437 29.3636 74.8548 29.3636L167.779 29.3636C174.59 29.3636 180.111 23.8215 180.111 16.9848L180.07 16.6957L180.111 16.697V14.1061C180.111 12.3572 181.523 10.9394 183.266 10.9394L190.654 10.9394C202.204 10.9394 207.979 10.9394 212.585 12.6863C219.824 15.4321 225.539 21.1682 228.274 28.4348C230.014 33.0578 230.014 38.8545 230.014 50.4479L230.014 443.552C230.014 455.146 230.014 460.942 228.274 465.565C225.539 472.832 219.824 478.568 212.585 481.314C207.979 483.061 202.204 483.061 190.654 483.061H51.9794C40.4295 483.061 34.6545 483.061 30.0487 481.314C22.8093 478.568 17.0947 472.832 14.3592 465.565C12.6188 460.942 12.6188 455.146 12.6188 443.552L12.6188 50.4479C12.6188 38.8545 12.6188 33.0578 14.3592 28.4348C17.0947 21.1682 22.8093 15.4321 30.0487 12.6863C34.6545 10.9394 40.4295 10.9394 51.9794 10.9394L59.3676 10.9394C61.11 10.9394 62.5225 12.3572 62.5225 14.1061Z" fill="#333333"/>
<path fill-rule="evenodd" clip-rule="evenodd" d="M188.945 1.15156L53.6888 1.15156C39.9784 1.15156 33.2593 1.15867 27.8376 2.92688C16.8361 6.5149 8.21082 15.1726 4.63622 26.2154C2.87463 31.6574 2.86755 38.4018 2.86755 52.1637L2.86755 441.836C2.86755 455.598 2.87463 462.343 4.63622 467.785C8.21082 478.827 16.8361 487.485 27.8376 491.073C33.2593 492.841 39.9784 492.849 53.6888 492.849H188.945C202.655 492.849 209.374 492.841 214.796 491.073C225.797 487.485 234.423 478.827 237.997 467.785C239.759 462.343 239.766 455.598 239.766 441.836L239.766 52.1637C239.766 38.4018 239.759 31.6574 237.997 26.2154C234.423 15.1726 225.797 6.5149 214.796 2.92688C209.374 1.15867 202.655 1.15156 188.945 1.15156ZM4.09069 26.0375C2.29395 31.5881 2.29395 38.4466 2.29395 52.1637L2.29395 441.836C2.29395 455.553 2.29395 462.412 4.09069 467.963C7.72203 479.181 16.4843 487.976 27.6604 491.621C33.1902 493.424 40.0231 493.424 53.6888 493.424H188.945C202.61 493.424 209.443 493.424 214.973 491.621C226.149 487.976 234.911 479.181 238.543 467.963C240.339 462.412 240.339 455.553 240.339 441.836L240.339 52.1637C240.339 38.4466 240.339 31.5881 238.543 26.0375C234.911 14.8194 226.149 6.02427 214.973 2.3793C209.443 0.575806 202.61 0.575806 188.945 0.575806L53.6888 0.575806C40.0231 0.575806 33.1902 0.575806 27.6604 2.3793C16.4843 6.02427 7.72203 14.8194 4.09069 26.0375Z" fill="#303030"/>
<path d="M11 33H231V463C231 474.598 221.598 484 210 484H32C20.402 484 11 474.598 11 463V33Z" fill="#6B46FF"/>
<path d="M35.888 235.816C35.776 235.64 35.672 235.4 35.576 235.096C35.48 234.792 35.432 234.472 35.432 234.136C35.432 233.512 35.568 233.064 35.84 232.792C36.128 232.52 36.496 232.384 36.944 232.384H47.408C47.52 232.56 47.624 232.8 47.72 233.104C47.816 233.408 47.864 233.728 47.864 234.064C47.864 234.688 47.72 235.136 47.432 235.408C47.16 235.68 46.8 235.816 46.352 235.816H43.688V246.904C43.512 246.952 43.232 247 42.848 247.048C42.48 247.096 42.112 247.12 41.744 247.12C41.376 247.12 41.048 247.088 40.76 247.024C40.488 246.976 40.256 246.88 40.064 246.736C39.872 246.592 39.728 246.392 39.632 246.136C39.536 245.88 39.488 245.544 39.488 245.128V235.816H35.888ZM48.9746 235.504C49.1346 235.456 49.3826 235.408 49.7186 235.36C50.0706 235.312 50.4306 235.288 50.7986 235.288C51.1506 235.288 51.4626 235.312 51.7346 235.36C52.0226 235.408 52.2626 235.504 52.4546 235.648C52.6466 235.792 52.7906 235.992 52.8866 236.248C52.9986 236.488 53.0546 236.808 53.0546 237.208V242.368C53.0546 243.024 53.2146 243.496 53.5346 243.784C53.8546 244.056 54.3186 244.192 54.9266 244.192C55.2946 244.192 55.5906 244.16 55.8146 244.096C56.0546 244.032 56.2386 243.968 56.3666 243.904V235.504C56.5266 235.456 56.7746 235.408 57.1106 235.36C57.4626 235.312 57.8226 235.288 58.1906 235.288C58.5426 235.288 58.8546 235.312 59.1266 235.36C59.4146 235.408 59.6546 235.504 59.8466 235.648C60.0386 235.792 60.1826 235.992 60.2786 236.248C60.3906 236.488 60.4466 236.808 60.4466 237.208V244.504C60.4466 245.304 60.1106 245.904 59.4386 246.304C58.8786 246.656 58.2066 246.92 57.4226 247.096C56.6546 247.288 55.8146 247.384 54.9026 247.384C54.0386 247.384 53.2386 247.288 52.5026 247.096C51.7826 246.904 51.1586 246.608 50.6306 246.208C50.1026 245.808 49.6946 245.296 49.4066 244.672C49.1186 244.032 48.9746 243.264 48.9746 242.368V235.504ZM67.0233 242.992C67.0233 243.408 67.1513 243.704 67.4073 243.88C67.6793 244.056 68.0553 244.144 68.5353 244.144C68.7753 244.144 69.0233 244.128 69.2793 244.096C69.5353 244.048 69.7593 243.992 69.9513 243.928C70.0953 244.104 70.2153 244.304 70.3113 244.528C70.4233 244.736 70.4793 244.992 70.4793 245.296C70.4793 245.904 70.2473 246.4 69.7833 246.784C69.3353 247.168 68.5353 247.36 67.3833 247.36C65.9753 247.36 64.8873 247.04 64.1193 246.4C63.3673 245.76 62.9913 244.72 62.9913 243.28V233.008C63.1673 232.96 63.4153 232.912 63.7353 232.864C64.0713 232.8 64.4233 232.768 64.7913 232.768C65.4953 232.768 66.0393 232.896 66.4233 233.152C66.8233 233.392 67.0233 233.912 67.0233 234.712V236.248H70.1673C70.2633 236.424 70.3513 236.648 70.4313 236.92C70.5273 237.176 70.5753 237.464 70.5753 237.784C70.5753 238.344 70.4473 238.752 70.1913 239.008C69.9513 239.248 69.6233 239.368 69.2073 239.368H67.0233V242.992ZM84.4841 241.168C84.4841 242.16 84.3321 243.048 84.0281 243.832C83.7241 244.6 83.2921 245.248 82.7321 245.776C82.1881 246.304 81.5321 246.704 80.7641 246.976C79.9961 247.248 79.1401 247.384 78.1961 247.384C77.2521 247.384 76.3961 247.24 75.6281 246.952C74.8601 246.664 74.1961 246.256 73.6361 245.728C73.0921 245.184 72.6681 244.528 72.3641 243.76C72.0601 242.992 71.9081 242.128 71.9081 241.168C71.9081 240.224 72.0601 239.368 72.3641 238.6C72.6681 237.832 73.0921 237.184 73.6361 236.656C74.1961 236.112 74.8601 235.696 75.6281 235.408C76.3961 235.12 77.2521 234.976 78.1961 234.976C79.1401 234.976 79.9961 235.128 80.7641 235.432C81.5321 235.72 82.1881 236.136 82.7321 236.68C83.2921 237.208 83.7241 237.856 84.0281 238.624C84.3321 239.392 84.4841 240.24 84.4841 241.168ZM76.0841 241.168C76.0841 242.144 76.2681 242.896 76.6361 243.424C77.0201 243.936 77.5481 244.192 78.2201 244.192C78.8921 244.192 79.4041 243.928 79.7561 243.4C80.1241 242.872 80.3081 242.128 80.3081 241.168C80.3081 240.208 80.1241 239.472 79.7561 238.96C79.3881 238.432 78.8681 238.168 78.1961 238.168C77.5241 238.168 77.0041 238.432 76.6361 238.96C76.2681 239.472 76.0841 240.208 76.0841 241.168ZM90.5546 246.976C90.3946 247.024 90.1386 247.072 89.7866 247.12C89.4506 247.168 89.0986 247.192 88.7306 247.192C88.3786 247.192 88.0586 247.168 87.7706 247.12C87.4986 247.072 87.2666 246.976 87.0746 246.832C86.8826 246.688 86.7306 246.496 86.6186 246.256C86.5226 246 86.4746 245.672 86.4746 245.272V238.072C86.4746 237.704 86.5386 237.392 86.6666 237.136C86.8106 236.864 87.0106 236.624 87.2666 236.416C87.5226 236.208 87.8346 236.024 88.2026 235.864C88.5866 235.688 88.9946 235.536 89.4266 235.408C89.8586 235.28 90.3066 235.184 90.7706 235.12C91.2346 235.04 91.6986 235 92.1626 235C92.9306 235 93.5386 235.152 93.9866 235.456C94.4346 235.744 94.6586 236.224 94.6586 236.896C94.6586 237.12 94.6266 237.344 94.5626 237.568C94.4986 237.776 94.4186 237.968 94.3226 238.144C93.9866 238.144 93.6426 238.16 93.2906 238.192C92.9386 238.224 92.5946 238.272 92.2586 238.336C91.9226 238.4 91.6026 238.472 91.2986 238.552C91.0106 238.616 90.7626 238.696 90.5546 238.792V246.976ZM96.2458 232.096C96.2458 231.488 96.4458 230.976 96.8458 230.56C97.2618 230.144 97.8058 229.936 98.4778 229.936C99.1498 229.936 99.6858 230.144 100.086 230.56C100.502 230.976 100.71 231.488 100.71 232.096C100.71 232.704 100.502 233.216 100.086 233.632C99.6858 234.048 99.1498 234.256 98.4778 234.256C97.8058 234.256 97.2618 234.048 96.8458 233.632C96.4458 233.216 96.2458 232.704 96.2458 232.096ZM100.518 246.976C100.342 247.008 100.078 247.048 99.7258 247.096C99.3898 247.16 99.0458 247.192 98.6938 247.192C98.3418 247.192 98.0218 247.168 97.7338 247.12C97.4618 247.072 97.2298 246.976 97.0378 246.832C96.8458 246.688 96.6938 246.496 96.5818 246.256C96.4858 246 96.4378 245.672 96.4378 245.272V235.504C96.6138 235.472 96.8698 235.432 97.2058 235.384C97.5578 235.32 97.9098 235.288 98.2617 235.288C98.6138 235.288 98.9258 235.312 99.1978 235.36C99.4858 235.408 99.7258 235.504 99.9178 235.648C100.11 235.792 100.254 235.992 100.35 236.248C100.462 236.488 100.518 236.808 100.518 237.208V246.976ZM108.107 244.408C108.379 244.408 108.675 244.384 108.995 244.336C109.331 244.272 109.579 244.192 109.739 244.096V242.176L108.011 242.32C107.563 242.352 107.195 242.448 106.907 242.608C106.619 242.768 106.475 243.008 106.475 243.328C106.475 243.648 106.595 243.912 106.835 244.12C107.091 244.312 107.515 244.408 108.107 244.408ZM107.915 234.976C108.779 234.976 109.563 235.064 110.267 235.24C110.987 235.416 111.595 235.688 112.091 236.056C112.603 236.408 112.995 236.864 113.267 237.424C113.539 237.968 113.675 238.616 113.675 239.368V244.744C113.675 245.16 113.555 245.504 113.315 245.776C113.091 246.032 112.819 246.256 112.499 246.448C111.459 247.072 109.995 247.384 108.107 247.384C107.259 247.384 106.491 247.304 105.803 247.144C105.131 246.984 104.547 246.744 104.051 246.424C103.571 246.104 103.195 245.696 102.923 245.2C102.667 244.704 102.539 244.128 102.539 243.472C102.539 242.368 102.867 241.52 103.523 240.928C104.179 240.336 105.195 239.968 106.571 239.824L109.715 239.488V239.32C109.715 238.856 109.507 238.528 109.091 238.336C108.691 238.128 108.107 238.024 107.339 238.024C106.731 238.024 106.139 238.088 105.563 238.216C104.987 238.344 104.467 238.504 104.003 238.696C103.795 238.552 103.619 238.336 103.475 238.048C103.331 237.744 103.259 237.432 103.259 237.112C103.259 236.696 103.355 236.368 103.547 236.128C103.755 235.872 104.067 235.656 104.483 235.48C104.947 235.304 105.491 235.176 106.115 235.096C106.755 235.016 107.355 234.976 107.915 234.976ZM120.322 246.976C120.146 247.008 119.882 247.048 119.53 247.096C119.194 247.16 118.85 247.192 118.498 247.192C118.146 247.192 117.826 247.168 117.538 247.12C117.266 247.072 117.034 246.976 116.842 246.832C116.65 246.688 116.498 246.496 116.386 246.256C116.29 246 116.242 245.672 116.242 245.272V231.352C116.418 231.32 116.674 231.28 117.01 231.232C117.362 231.168 117.714 231.136 118.066 231.136C118.418 231.136 118.73 231.16 119.002 231.208C119.29 231.256 119.53 231.352 119.722 231.496C119.914 231.64 120.058 231.84 120.154 232.096C120.266 232.336 120.322 232.656 120.322 233.056V246.976ZM132.736 243.52C132.736 244.736 132.28 245.688 131.368 246.376C130.456 247.064 129.112 247.408 127.336 247.408C126.664 247.408 126.04 247.36 125.464 247.264C124.888 247.168 124.392 247.024 123.976 246.832C123.576 246.624 123.256 246.368 123.016 246.064C122.792 245.76 122.68 245.4 122.68 244.984C122.68 244.6 122.76 244.28 122.92 244.024C123.08 243.752 123.272 243.528 123.496 243.352C123.96 243.608 124.488 243.84 125.08 244.048C125.688 244.24 126.384 244.336 127.168 244.336C127.664 244.336 128.04 244.264 128.296 244.12C128.568 243.976 128.704 243.784 128.704 243.544C128.704 243.32 128.608 243.144 128.416 243.016C128.224 242.888 127.904 242.784 127.456 242.704L126.736 242.56C125.344 242.288 124.304 241.864 123.616 241.288C122.944 240.696 122.608 239.856 122.608 238.768C122.608 238.176 122.736 237.64 122.992 237.16C123.248 236.68 123.608 236.28 124.072 235.96C124.536 235.64 125.088 235.392 125.728 235.216C126.384 235.04 127.104 234.952 127.888 234.952C128.48 234.952 129.032 235 129.544 235.096C130.072 235.176 130.528 235.304 130.912 235.48C131.296 235.656 131.6 235.888 131.824 236.176C132.048 236.448 132.16 236.776 132.16 237.16C132.16 237.528 132.088 237.848 131.944 238.12C131.816 238.376 131.648 238.592 131.44 238.768C131.312 238.688 131.12 238.608 130.864 238.528C130.608 238.432 130.328 238.352 130.024 238.288C129.72 238.208 129.408 238.144 129.088 238.096C128.784 238.048 128.504 238.024 128.248 238.024C127.72 238.024 127.312 238.088 127.024 238.216C126.736 238.328 126.592 238.512 126.592 238.768C126.592 238.944 126.672 239.088 126.832 239.2C126.992 239.312 127.296 239.416 127.744 239.512L128.488 239.68C130.024 240.032 131.112 240.52 131.752 241.144C132.408 241.752 132.736 242.544 132.736 243.52ZM150.05 232.456C150.162 232.632 150.258 232.872 150.338 233.176C150.434 233.464 150.482 233.768 150.482 234.088C150.482 234.712 150.346 235.16 150.074 235.432C149.818 235.688 149.466 235.816 149.018 235.816H143.978V238.528H149.234C149.362 238.704 149.466 238.936 149.546 239.224C149.642 239.512 149.69 239.816 149.69 240.136C149.69 240.744 149.554 241.184 149.282 241.456C149.026 241.712 148.674 241.84 148.226 241.84H144.026V246.904C143.85 246.952 143.57 247 143.186 247.048C142.818 247.096 142.45 247.12 142.082 247.12C141.714 247.12 141.386 247.088 141.098 247.024C140.826 246.976 140.594 246.88 140.402 246.736C140.21 246.592 140.066 246.392 139.97 246.136C139.874 245.88 139.826 245.544 139.826 245.128V234.688C139.826 234 140.026 233.456 140.426 233.056C140.826 232.656 141.37 232.456 142.058 232.456H150.05ZM155.875 246.976C155.715 247.024 155.459 247.072 155.107 247.12C154.771 247.168 154.419 247.192 154.051 247.192C153.699 247.192 153.379 247.168 153.091 247.12C152.819 247.072 152.587 246.976 152.395 246.832C152.203 246.688 152.051 246.496 151.939 246.256C151.843 246 151.795 245.672 151.795 245.272V238.072C151.795 237.704 151.859 237.392 151.987 237.136C152.131 236.864 152.331 236.624 152.587 236.416C152.843 236.208 153.155 236.024 153.523 235.864C153.907 235.688 154.315 235.536 154.747 235.408C155.179 235.28 155.627 235.184 156.091 235.12C156.555 235.04 157.019 235 157.483 235C158.251 235 158.859 235.152 159.307 235.456C159.755 235.744 159.979 236.224 159.979 236.896C159.979 237.12 159.947 237.344 159.883 237.568C159.819 237.776 159.739 237.968 159.643 238.144C159.307 238.144 158.963 238.16 158.611 238.192C158.259 238.224 157.915 238.272 157.579 238.336C157.243 238.4 156.923 238.472 156.619 238.552C156.331 238.616 156.083 238.696 155.875 238.792V246.976ZM167.385 247.384C166.441 247.384 165.561 247.256 164.745 247C163.945 246.728 163.241 246.328 162.633 245.8C162.041 245.272 161.569 244.608 161.217 243.808C160.881 243.008 160.713 242.072 160.713 241C160.713 239.944 160.881 239.04 161.217 238.288C161.569 237.52 162.025 236.896 162.585 236.416C163.145 235.92 163.785 235.56 164.505 235.336C165.225 235.096 165.961 234.976 166.713 234.976C167.561 234.976 168.329 235.104 169.017 235.36C169.721 235.616 170.321 235.968 170.817 236.416C171.329 236.864 171.721 237.4 171.993 238.024C172.281 238.648 172.425 239.328 172.425 240.064C172.425 240.608 172.273 241.024 171.969 241.312C171.665 241.6 171.241 241.784 170.697 241.864L164.769 242.752C164.945 243.28 165.305 243.68 165.849 243.952C166.393 244.208 167.017 244.336 167.721 244.336C168.377 244.336 168.993 244.256 169.569 244.096C170.161 243.92 170.641 243.72 171.009 243.496C171.265 243.656 171.481 243.88 171.657 244.168C171.833 244.456 171.921 244.76 171.921 245.08C171.921 245.8 171.585 246.336 170.913 246.688C170.401 246.96 169.825 247.144 169.185 247.24C168.545 247.336 167.945 247.384 167.385 247.384ZM166.713 237.952C166.329 237.952 165.993 238.016 165.705 238.144C165.433 238.272 165.209 238.44 165.033 238.648C164.857 238.84 164.721 239.064 164.625 239.32C164.545 239.56 164.497 239.808 164.481 240.064L168.585 239.392C168.537 239.072 168.361 238.752 168.057 238.432C167.753 238.112 167.305 237.952 166.713 237.952ZM179.381 244.408C179.653 244.408 179.949 244.384 180.269 244.336C180.605 244.272 180.853 244.192 181.013 244.096V242.176L179.285 242.32C178.837 242.352 178.469 242.448 178.181 242.608C177.893 242.768 177.749 243.008 177.749 243.328C177.749 243.648 177.869 243.912 178.109 244.12C178.365 244.312 178.789 244.408 179.381 244.408ZM179.189 234.976C180.053 234.976 180.837 235.064 181.541 235.24C182.261 235.416 182.869 235.688 183.365 236.056C183.877 236.408 184.269 236.864 184.541 237.424C184.813 237.968 184.949 238.616 184.949 239.368V244.744C184.949 245.16 184.829 245.504 184.589 245.776C184.365 246.032 184.093 246.256 183.773 246.448C182.733 247.072 181.269 247.384 179.381 247.384C178.533 247.384 177.765 247.304 177.077 247.144C176.405 246.984 175.821 246.744 175.325 246.424C174.845 246.104 174.469 245.696 174.197 245.2C173.941 244.704 173.813 244.128 173.813 243.472C173.813 242.368 174.141 241.52 174.797 240.928C175.453 240.336 176.469 239.968 177.845 239.824L180.989 239.488V239.32C180.989 238.856 180.781 238.528 180.365 238.336C179.965 238.128 179.381 238.024 178.613 238.024C178.005 238.024 177.413 238.088 176.837 238.216C176.261 238.344 175.741 238.504 175.277 238.696C175.069 238.552 174.893 238.336 174.749 238.048C174.605 237.744 174.533 237.432 174.533 237.112C174.533 236.696 174.629 236.368 174.821 236.128C175.029 235.872 175.341 235.656 175.757 235.48C176.221 235.304 176.765 235.176 177.389 235.096C178.029 235.016 178.629 234.976 179.189 234.976ZM198.843 244.888C198.763 245.64 198.539 246.216 198.171 246.616C197.819 247.016 197.299 247.216 196.611 247.216C196.099 247.216 195.643 247.096 195.243 246.856C194.843 246.6 194.411 246.176 193.947 245.584L191.571 242.608V246.976C191.395 247.008 191.131 247.048 190.779 247.096C190.443 247.16 190.099 247.192 189.747 247.192C189.395 247.192 189.075 247.168 188.787 247.12C188.515 247.072 188.283 246.976 188.091 246.832C187.899 246.688 187.747 246.496 187.635 246.256C187.539 246 187.491 245.672 187.491 245.272V231.376C187.667 231.328 187.923 231.28 188.259 231.232C188.611 231.168 188.963 231.136 189.315 231.136C189.667 231.136 189.979 231.16 190.251 231.208C190.539 231.256 190.779 231.352 190.971 231.496C191.163 231.64 191.307 231.84 191.403 232.096C191.515 232.336 191.571 232.656 191.571 233.056V239.392L195.699 235.168C196.531 235.168 197.195 235.352 197.691 235.72C198.203 236.088 198.459 236.552 198.459 237.112C198.459 237.352 198.419 237.576 198.339 237.784C198.259 237.976 198.131 238.176 197.955 238.384C197.795 238.592 197.579 238.816 197.307 239.056C197.051 239.28 196.747 239.544 196.395 239.848L195.003 241.048L198.843 244.888Z" fill="white"/>
<path d="M165.352 260.704C165.352 260.256 165.491 259.883 165.768 259.584C166.045 259.285 166.424 259.136 166.904 259.136C167.384 259.136 167.763 259.285 168.04 259.584C168.317 259.883 168.456 260.256 168.456 260.704C168.456 261.152 168.317 261.525 168.04 261.824C167.763 262.123 167.384 262.272 166.904 262.272C166.424 262.272 166.045 262.123 165.768 261.824C165.491 261.525 165.352 261.152 165.352 260.704ZM173.872 256.128C173.606 256.128 173.35 256.171 173.104 256.256C172.87 256.341 172.662 256.469 172.48 256.64C172.31 256.8 172.171 257.003 172.064 257.248C171.958 257.493 171.904 257.781 171.904 258.112C171.904 258.773 172.091 259.269 172.464 259.6C172.848 259.931 173.312 260.096 173.856 260.096C174.176 260.096 174.454 260.059 174.688 259.984C174.923 259.909 175.131 259.829 175.312 259.744C175.526 259.893 175.686 260.059 175.792 260.24C175.899 260.411 175.952 260.619 175.952 260.864C175.952 261.301 175.744 261.643 175.328 261.888C174.912 262.123 174.336 262.24 173.6 262.24C172.928 262.24 172.32 262.144 171.776 261.952C171.232 261.749 170.763 261.472 170.368 261.12C169.984 260.757 169.686 260.325 169.472 259.824C169.259 259.323 169.152 258.768 169.152 258.16C169.152 257.456 169.264 256.843 169.488 256.32C169.723 255.787 170.038 255.349 170.432 255.008C170.827 254.667 171.28 254.411 171.792 254.24C172.315 254.069 172.864 253.984 173.44 253.984C174.208 253.984 174.8 254.123 175.216 254.4C175.632 254.677 175.84 255.035 175.84 255.472C175.84 255.675 175.792 255.867 175.696 256.048C175.6 256.219 175.488 256.368 175.36 256.496C175.179 256.411 174.96 256.331 174.704 256.256C174.448 256.171 174.171 256.128 173.872 256.128ZM185.13 258.112C185.13 258.773 185.029 259.365 184.826 259.888C184.623 260.4 184.335 260.832 183.962 261.184C183.599 261.536 183.162 261.803 182.65 261.984C182.138 262.165 181.567 262.256 180.938 262.256C180.309 262.256 179.738 262.16 179.226 261.968C178.714 261.776 178.271 261.504 177.898 261.152C177.535 260.789 177.253 260.352 177.05 259.84C176.847 259.328 176.746 258.752 176.746 258.112C176.746 257.483 176.847 256.912 177.05 256.4C177.253 255.888 177.535 255.456 177.898 255.104C178.271 254.741 178.714 254.464 179.226 254.272C179.738 254.08 180.309 253.984 180.938 253.984C181.567 253.984 182.138 254.085 182.65 254.288C183.162 254.48 183.599 254.757 183.962 255.12C184.335 255.472 184.623 255.904 184.826 256.416C185.029 256.928 185.13 257.493 185.13 258.112ZM179.53 258.112C179.53 258.763 179.653 259.264 179.898 259.616C180.154 259.957 180.506 260.128 180.954 260.128C181.402 260.128 181.743 259.952 181.978 259.6C182.223 259.248 182.346 258.752 182.346 258.112C182.346 257.472 182.223 256.981 181.978 256.64C181.733 256.288 181.386 256.112 180.938 256.112C180.49 256.112 180.143 256.288 179.898 256.64C179.653 256.981 179.53 257.472 179.53 258.112ZM190.185 253.984C190.622 253.984 191.049 254.048 191.465 254.176C191.892 254.293 192.26 254.475 192.569 254.72C192.889 254.507 193.246 254.331 193.641 254.192C194.046 254.053 194.532 253.984 195.097 253.984C195.502 253.984 195.897 254.037 196.281 254.144C196.676 254.251 197.022 254.421 197.321 254.656C197.63 254.88 197.876 255.184 198.057 255.568C198.238 255.941 198.329 256.4 198.329 256.944V261.984C198.222 262.016 198.052 262.048 197.817 262.08C197.593 262.112 197.358 262.128 197.113 262.128C196.878 262.128 196.665 262.112 196.473 262.08C196.292 262.048 196.137 261.984 196.009 261.888C195.881 261.792 195.78 261.664 195.705 261.504C195.641 261.333 195.609 261.115 195.609 260.848V257.024C195.609 256.704 195.518 256.475 195.337 256.336C195.156 256.187 194.91 256.112 194.601 256.112C194.452 256.112 194.292 256.149 194.121 256.224C193.95 256.288 193.822 256.357 193.737 256.432C193.748 256.475 193.753 256.517 193.753 256.56C193.753 256.592 193.753 256.624 193.753 256.656V261.984C193.636 262.016 193.46 262.048 193.225 262.08C193.001 262.112 192.772 262.128 192.537 262.128C192.302 262.128 192.089 262.112 191.897 262.08C191.716 262.048 191.561 261.984 191.433 261.888C191.305 261.792 191.204 261.664 191.129 261.504C191.065 261.333 191.033 261.115 191.033 260.848V257.024C191.033 256.704 190.932 256.475 190.729 256.336C190.537 256.187 190.302 256.112 190.025 256.112C189.833 256.112 189.668 256.144 189.529 256.208C189.39 256.261 189.273 256.315 189.177 256.368V261.984C189.07 262.016 188.9 262.048 188.665 262.08C188.441 262.112 188.206 262.128 187.961 262.128C187.726 262.128 187.513 262.112 187.321 262.08C187.14 262.048 186.985 261.984 186.857 261.888C186.729 261.792 186.628 261.664 186.553 261.504C186.489 261.333 186.457 261.115 186.457 260.848V256.016C186.457 255.728 186.516 255.499 186.633 255.328C186.761 255.157 186.932 254.997 187.145 254.848C187.508 254.592 187.956 254.384 188.489 254.224C189.033 254.064 189.598 253.984 190.185 253.984Z" fill="white"/>
<path fill-rule="evenodd" clip-rule="evenodd" d="M6.27405 26.7491C4.5896 31.9528 4.5896 38.3827 4.5896 51.2424L4.5896 442.758C4.5896 455.617 4.5896 462.047 6.27405 467.251C9.67843 477.768 17.893 486.013 28.3706 489.43C33.5548 491.121 39.9606 491.121 52.7723 491.121H189.864C202.675 491.121 209.081 491.121 214.265 489.43C224.743 486.013 232.957 477.768 236.362 467.251C238.046 462.047 238.046 455.617 238.046 442.758L238.046 51.2424C238.046 38.3827 238.046 31.9528 236.362 26.7491C232.957 16.2322 224.743 7.98672 214.265 4.56956C209.081 2.87878 202.675 2.87878 189.864 2.87878L52.7723 2.87878C39.9606 2.87878 33.5548 2.87878 28.3706 4.56956C17.893 7.98672 9.67843 16.2322 6.27405 26.7491ZM62.5234 14.1061V16.697L62.5643 16.6957L62.5232 16.9848C62.5232 23.8214 68.0446 29.3636 74.8557 29.3636L167.779 29.3636C174.59 29.3636 180.112 23.8214 180.112 16.9848L180.071 16.6957L180.112 16.697V14.1061C180.112 12.3572 181.524 10.9394 183.267 10.9394L190.655 10.9394C202.205 10.9394 207.98 10.9394 212.586 12.6863C219.825 15.4321 225.54 21.1682 228.275 28.4347C230.015 33.0578 230.015 38.8545 230.015 50.4479L230.015 443.552C230.015 455.145 230.015 460.942 228.275 465.565C225.54 472.832 219.825 478.568 212.586 481.314C207.98 483.061 202.205 483.061 190.655 483.061H51.9803C40.4304 483.061 34.6554 483.061 30.0496 481.314C22.8102 478.568 17.0956 472.832 14.36 465.565C12.6197 460.942 12.6197 455.145 12.6197 443.552L12.6197 50.4478C12.6197 38.8545 12.6197 33.0578 14.36 28.4347C17.0956 21.1682 22.8102 15.4321 30.0496 12.6863C34.6554 10.9394 40.4304 10.9394 51.9803 10.9394L59.3685 10.9394C61.1109 10.9394 62.5234 12.3572 62.5234 14.1061Z" fill="#121515"/>
<path opacity="0.35" d="M207.724 23.7018C207.724 22.5052 208.694 21.5352 209.891 21.5352H217.405C218.602 21.5352 219.572 22.5052 219.572 23.7018V24.9299C219.572 26.1265 218.602 27.0966 217.405 27.0966H209.891C208.694 27.0966 207.724 26.1265 207.724 24.9299V23.7018Z" stroke="black"/>
<path opacity="0.4" d="M220.656 23.158V25.4737C221.126 25.2776 221.432 24.8214 221.432 24.3159C221.432 23.8104 221.126 23.3541 220.656 23.158Z" fill="black"/>
<path d="M208.392 23.5263C208.392 22.7899 208.989 22.193 209.725 22.193H217.571C218.307 22.193 218.904 22.7899 218.904 23.5263V25.1053C218.904 25.8417 218.307 26.4386 217.571 26.4386H209.725C208.989 26.4386 208.392 25.8417 208.392 25.1053V23.5263Z" fill="black"/>
<path fill-rule="evenodd" clip-rule="evenodd" d="M199.825 22.352C201.119 22.3521 202.364 22.845 203.302 23.729C203.372 23.7972 203.485 23.7963 203.555 23.727L204.23 23.0516C204.265 23.0164 204.285 22.9688 204.284 22.9193C204.284 22.8697 204.264 22.8223 204.228 22.7876C201.766 20.4489 197.883 20.4489 195.421 22.7876C195.386 22.8223 195.366 22.8697 195.365 22.9192C195.365 22.9688 195.384 23.0164 195.42 23.0516L196.095 23.727C196.164 23.7964 196.277 23.7973 196.348 23.729C197.286 22.845 198.531 22.352 199.825 22.352ZM199.825 24.5495C200.536 24.5495 201.222 24.8115 201.749 25.2846C201.82 25.3517 201.932 25.3503 202.002 25.2813L202.676 24.6059C202.712 24.5704 202.731 24.5224 202.731 24.4724C202.73 24.4225 202.71 24.3748 202.673 24.3401C201.068 22.8601 198.583 22.8601 196.978 24.3401C196.942 24.3748 196.921 24.4225 196.921 24.4725C196.92 24.5224 196.94 24.5705 196.975 24.6059L197.65 25.2813C197.719 25.3503 197.831 25.3517 197.903 25.2846C198.429 24.8118 199.114 24.5498 199.825 24.5495ZM201.176 26.028C201.177 26.0781 201.157 26.1264 201.121 26.1615L199.954 27.3285C199.92 27.3628 199.874 27.3821 199.825 27.3821C199.776 27.3821 199.73 27.3628 199.695 27.3285L198.529 26.1615C198.493 26.1264 198.473 26.0781 198.474 26.028C198.475 25.9779 198.497 25.9305 198.534 25.8969C199.279 25.2723 200.37 25.2723 201.115 25.8969C201.153 25.9305 201.175 25.978 201.176 26.028Z" fill="black"/>
<path fill-rule="evenodd" clip-rule="evenodd" d="M191.845 21.228H191.261C190.939 21.228 190.677 21.4872 190.677 21.807V26.8245C190.677 27.1443 190.939 27.4035 191.261 27.4035H191.845C192.168 27.4035 192.429 27.1443 192.429 26.8245V21.807C192.429 21.4872 192.168 21.228 191.845 21.228ZM188.536 22.5789H189.12C189.443 22.5789 189.704 22.8381 189.704 23.1579V26.8245C189.704 27.1443 189.443 27.4035 189.12 27.4035H188.536C188.213 27.4035 187.952 27.1443 187.952 26.8245V23.1579C187.952 22.8381 188.213 22.5789 188.536 22.5789ZM186.395 23.9298H185.811C185.488 23.9298 185.227 24.189 185.227 24.5087V26.8245C185.227 27.1443 185.488 27.4035 185.811 27.4035H186.395C186.717 27.4035 186.979 27.1443 186.979 26.8245V24.5087C186.979 24.189 186.717 23.9298 186.395 23.9298ZM183.669 25.0877H183.085C182.763 25.0877 182.501 25.3469 182.501 25.6666V26.8245C182.501 27.1443 182.763 27.4035 183.085 27.4035H183.669C183.992 27.4035 184.253 27.1443 184.253 26.8245V25.6666C184.253 25.3469 183.992 25.0877 183.669 25.0877Z" fill="black"/>
<path d="M32.7953 27.359C34.3651 27.359 35.2975 26.142 35.2975 24.0812C35.2975 23.3052 35.1478 22.6522 34.8613 22.1476C34.4464 21.3631 33.732 20.9391 32.8295 20.9391C31.4864 20.9391 30.5369 21.8338 30.5369 23.0889C30.5369 24.2678 31.3923 25.1243 32.5686 25.1243C33.2915 25.1243 33.8775 24.7893 34.1683 24.2084H34.1812C34.1812 24.2084 34.1983 24.2084 34.2025 24.2084C34.2111 24.2084 34.241 24.2084 34.241 24.2084C34.241 25.6077 33.7064 26.443 32.8039 26.443C32.2735 26.443 31.8628 26.1547 31.7217 25.6925H30.6224C30.8063 26.6975 31.6661 27.359 32.7953 27.359ZM32.8338 24.255C32.1238 24.255 31.619 23.7547 31.619 23.055C31.619 22.3723 32.1494 21.8508 32.8381 21.8508C33.5267 21.8508 34.0571 22.3808 34.0571 23.072C34.0571 23.7547 33.5396 24.255 32.8338 24.255Z" fill="black"/>
<path d="M37.1028 27.2996C37.5091 27.2996 37.7871 27.0112 37.7871 26.6296C37.7871 26.2437 37.5091 25.9596 37.1028 25.9596C36.7007 25.9596 36.4184 26.2437 36.4184 26.6296C36.4184 27.0112 36.7007 27.2996 37.1028 27.2996ZM37.1028 24.1193C37.5091 24.1193 37.7871 23.8352 37.7871 23.4536C37.7871 23.0677 37.5091 22.7836 37.1028 22.7836C36.7007 22.7836 36.4184 23.0677 36.4184 23.4536C36.4184 23.8352 36.7007 24.1193 37.1028 24.1193Z" fill="black"/>
<path d="M41.7909 27.2105H42.8474V26.0699H43.6815V25.1455H42.8474V21.0917H41.2904C40.1997 22.72 39.3314 24.0812 38.7754 25.0946V26.0699H41.7909V27.2105ZM39.7977 25.1073C40.5162 23.8522 41.1579 22.8472 41.7481 21.9822H41.808V25.1709H39.7977V25.1073Z" fill="black"/>
<path d="M46.0342 27.2105H47.1377V21.0917H46.0385L44.4259 22.2112V23.2628L45.9615 22.1942H46.0342V27.2105Z" fill="black"/>
<rect x="189.863" width="3.44159" height="2.87879" fill="#414141"/>
<rect x="238.045" y="49.5151" width="2.86807" height="3.45454" fill="#414141"/>
<rect x="1.72086" y="49.5151" width="2.86802" height="3.45454" fill="#414141"/>
<rect x="1.72086" y="441.03" width="2.86802" height="3.45453" fill="#414141"/>
<rect x="238.045" y="441.03" width="2.86807" height="3.45453" fill="#414141"/>
<rect x="49.3297" y="491.121" width="3.44162" height="2.87878" fill="#414141"/>
<path fill-rule="evenodd" clip-rule="evenodd" d="M145.695 23.0304C148.23 23.0304 150.284 20.9682 150.284 18.4243C150.284 15.8804 148.23 13.8182 145.695 13.8182C143.161 13.8182 141.106 15.8804 141.106 18.4243C141.106 20.9682 143.161 23.0304 145.695 23.0304Z" fill="#262C2D"/>
<path fill-rule="evenodd" clip-rule="evenodd" d="M145.695 21.3031C147.279 21.3031 148.563 20.0142 148.563 18.4243C148.563 16.8344 147.279 15.5455 145.695 15.5455C144.111 15.5455 142.827 16.8344 142.827 18.4243C142.827 20.0142 144.111 21.3031 145.695 21.3031Z" fill="#121515"/>
<path opacity="0.4" fill-rule="evenodd" clip-rule="evenodd" d="M145.696 17.8491C146.013 17.8491 146.269 17.5912 146.269 17.273C146.269 16.9549 146.013 16.697 145.696 16.697C145.379 16.697 145.122 16.9549 145.122 17.273C145.122 17.5912 145.379 17.8491 145.696 17.8491Z" fill="#636F73"/>
<path fill-rule="evenodd" clip-rule="evenodd" d="M107.264 18.4243C107.264 17.4703 108.037 16.697 108.991 16.697H133.643C134.597 16.697 135.371 17.4703 135.371 18.4243C135.371 19.3782 134.597 20.1516 133.643 20.1516H108.991C108.037 20.1516 107.264 19.3782 107.264 18.4243Z" fill="#262C2D"/>
<rect x="72" y="470" width="100" height="3" rx="1.5" fill="black"/>
</svg>
